<svg xmlns="http://www.w3.org/2000/svg" width="1000" height="700" viewBox="0 0 1000 700"><path fill="#45494C" d="M360.005 312.271c-20.845 0-37.742 16.896-37.742 37.737s16.896 37.741 37.742 37.741c20.846 0 37.736-16.897 37.736-37.741 0-20.845-16.89-37.737-37.736-37.737zm0 67.089c-16.209 0-29.356-13.144-29.356-29.353 0-16.214 13.147-29.352 29.356-29.352 16.204 0 29.347 13.138 29.347 29.353 0 16.209-13.143 29.352-29.347 29.352z"/><path fill="#E4F7FD" d="M542.401 349.988c0-14.845 6.885-28.057 17.599-36.701-1.929-10.573-4.656-20.865-8.149-30.805-13.618-2.158-26.177-10.229-33.565-23.126-7.374-12.878-7.982-27.768-2.982-40.597-6.806-8.036-14.219-15.532-22.182-22.425-12.887 4.833-27.757 4.038-40.542-3.493-12.824-7.555-20.737-20.228-22.724-33.89-10.652-3.89-21.734-6.863-33.135-8.949-8.654 10.725-21.875 17.598-36.721 17.598-14.845 0-28.071-6.874-36.72-17.598-10.578 1.933-20.865 4.661-30.799 8.159-2.169 13.614-10.234 26.173-23.132 33.557-12.878 7.374-27.763 7.987-40.591 2.983-8.041 6.804-15.532 14.222-22.43 22.179 4.837 12.883 4.042 27.758-3.488 40.542-7.555 12.819-20.227 20.737-33.89 22.719-3.896 10.651-6.864 21.734-8.949 33.136 10.725 8.644 17.598 21.875 17.598 36.72 0 14.846-6.873 28.078-17.598 36.721 1.933 10.576 4.661 20.87 8.164 30.798 13.614 2.165 26.168 10.24 33.552 23.133 7.378 12.883 7.992 27.768 2.987 40.591 6.8 8.047 14.223 15.532 22.18 22.43 12.888-4.831 27.763-4.032 40.548 3.493 12.819 7.551 20.732 20.224 22.719 33.886 10.65 3.892 21.733 6.87 33.135 8.949 8.649-10.729 21.875-17.593 36.721-17.593 14.846 0 28.067 6.863 36.721 17.593 10.573-1.933 20.866-4.661 30.799-8.158 2.173-13.62 10.229-26.174 23.131-33.562 12.883-7.373 27.763-7.987 40.592-2.987 8.04-6.804 15.532-14.219 22.426-22.18-4.838-12.889-4.033-27.759 3.493-40.543 7.55-12.818 20.227-20.737 33.884-22.724 3.896-10.651 6.864-21.733 8.943-33.136-10.722-8.645-17.595-21.875-17.595-36.72zm-182.396 155.17c-85.692 0-155.149-69.465-155.149-155.15 0-85.687 69.462-155.15 155.149-155.15s155.145 69.463 155.145 155.15c-.001 85.685-69.453 155.15-155.145 155.15z"/><path fill="#C9DBE1" d="M360.005 204.081c-80.594 0-145.927 65.333-145.927 145.927 0 80.589 65.333 145.926 145.927 145.926 80.589 0 145.922-65.337 145.922-145.926 0-80.595-65.327-145.927-145.922-145.927zm0 193.107c-26.055 0-47.17-21.123-47.17-47.18 0-26.056 21.115-47.176 47.17-47.176 26.056 0 47.175 21.125 47.175 47.176 0 26.056-21.119 47.18-47.175 47.18z"/><g fill="#45494C"><path d="M619.593 350.733c1.047 7.755 5.448 18.863 16.871 18.863 7.549 0 12.369-5.238 12.369-13.202 0-5.767-3.46-9.854-9.434-14.569l-3.037-2.306c-5.137-3.982-11.845-9.852-11.845-18.551 0-11.108 8.907-18.969 21.484-18.969 3.563 0 7.231.733 10.376 1.781 1.992.733 3.67 1.467 4.506 1.782-.313 4.297-.209 9.852-.313 14.882l-3.144.314c-.839-7.65-3.563-15.196-12.578-15.196-7.229 0-11.424 5.869-11.424 11.947 0 5.974 3.984 9.747 9.435 13.834l3.143 2.306c7.231 5.345 12.368 10.899 12.368 19.39 0 12.368-10.9 20.227-23.268 20.227-8.488 0-15.825-3.771-18.235-6.497-.105-2.411-.105-8.176-.314-15.721l3.04-.315zM701.652 360.795c-9.224 9.955-17.083 12.155-22.532 12.155-5.137 0-11.845-2.934-11.845-15.403 0-9.748 4.403-20.752 12.578-26.936 4.401-3.459 10.271-6.079 14.986-6.079 5.87 0 9.434 3.983 9.434 8.489 0 10.481-17.398 16.036-27.46 18.655-.209 1.257-.209 2.201-.209 3.25 0 5.554 1.782 11.423 7.965 11.423 4.402 0 10.062-2.934 15.301-7.966l1.782 2.412zm-14.986-30.707c-2.726 1.677-7.755 6.707-9.434 18.235 14.254-3.982 18.55-8.699 18.55-13.73 0-3.667-2.199-5.658-5.029-5.658-1.364 0-2.935.418-4.087 1.153zM737.707 329.982l-10.271.523-5.973 28.401c-1.048 5.136-.523 6.289.629 6.289 1.677 0 6.602-3.354 9.223-5.975l1.466 2.412c-3.562 4.296-11.737 11.316-17.292 11.316-2.725 0-4.82-3.248-2.514-14.043l6.077-28.401h-7.65l-.314-.943 2.621-3.354h6.287l2.41-9.852 8.698-6.812 1.05.734-3.669 15.93h12.054l-2.832 3.775zM789.692 362.054c-5.555 6.602-12.472 10.896-15.72 10.896-2.516 0-3.876-2.304-1.886-11.002.838-3.354 1.258-5.554 1.886-8.804h-.21c-5.345 7.336-11.633 13.311-16.664 16.769-2.829 1.99-5.764 3.037-8.279 3.037-2.934 0-6.287-1.989-3.562-13.729 1.78-7.649 3.668-15.405 5.45-23.161.628-2.724.524-3.668-.21-3.668-.84 0-3.773 1.991-7.127 4.821l-1.258-2.725c6.184-6.079 12.892-9.957 15.93-9.957 2.517 0 3.04 2.201 1.363 9.433-1.887 8.069-3.774 16.35-5.66 24.523-1.152 5.137-.418 6.92 1.153 6.92 5.66 0 16.874-13.731 20.646-20.648 1.153-5.24 2.516-11.005 3.88-17.502l8.068-2.726h1.153c-2.725 11.005-5.555 22.638-8.07 36.053-.628 3.354-.524 4.191.314 4.191s4.611-2.408 7.336-5.24l1.467 2.519zM815.162 325.79c3.039-.838 6.812-1.258 9.745-1.258 10.795 0 15.093 5.24 15.093 14.673 0 6.812-2.934 14.882-8.907 21.59-5.136 5.869-12.786 10.48-19.599 12.155-1.677 0-3.982-.207-5.975-1.047l-2.934 14.463c-1.153 5.87-.524 6.812 4.61 7.338l2.517.209-.419 2.83-24.943 1.257.524-2.725c6.394-1.257 7.65-2.305 9.013-8.698 3.878-18.235 7.861-36.367 11.633-54.185-3.354 1.049-6.078 2.41-8.488 3.772l-.733-2.828c2.934-1.992 6.602-3.774 10.061-5.136l1.153-4.717c2.095-2.41 5.764-4.926 8.488-6.393l1.048.628-1.887 8.072zm-8.07 38.986c1.154 1.573 3.878 3.565 6.289 3.46 7.126 0 16.978-14.149 16.978-27.563 0-9.118-4.717-11.424-10.48-11.424-1.677 0-3.771.209-5.659.733l-7.128 34.794z"/></g></svg>